<?xml version="1.0" encoding="UTF-8" standalone="no"?>
<!-- Created with Inkscape (http://www.inkscape.org/) -->

<svg
   width="211.03601mm"
   height="202.80409mm"
   viewBox="0 0 211.03601 202.80409"
   version="1.1"
   id="svg5"
   xml:space="preserve"
   inkscape:export-filename="close-1.svg"
   inkscape:export-xdpi="1204.65"
   inkscape:export-ydpi="1204.65"
   xmlns:inkscape="http://www.inkscape.org/namespaces/inkscape"
   xmlns:sodipodi="http://sodipodi.sourceforge.net/DTD/sodipodi-0.dtd"
   xmlns="http://www.w3.org/2000/svg"
   xmlns:svg="http://www.w3.org/2000/svg"><sodipodi:namedview
     id="namedview7"
     pagecolor="#ffffff"
     bordercolor="#666666"
     borderopacity="1.0"
     inkscape:showpageshadow="2"
     inkscape:pageopacity="0.0"
     inkscape:pagecheckerboard="0"
     inkscape:deskcolor="#d1d1d1"
     inkscape:document-units="mm"
     showgrid="false" /><defs
     id="defs2"><style
       id="style132">.cls-1{fill:#f44336;fill-rule:evenodd;}</style></defs><ellipse
     style="fill:#659293;fill-opacity:1;stroke:none;stroke-width:0.264999;stroke-linecap:round;stroke-linejoin:round;stroke-dasharray:none"
     id="path21761"
     cx="105.51798"
     cy="101.40205"
     rx="105.51801"
     ry="101.40205"
     inkscape:export-filename="close-2.svg"
     inkscape:export-xdpi="1204.65"
     inkscape:export-ydpi="1204.65" /><path
     d="m 146.07859,60.259344 c -3.30729,-3.307292 -8.67833,-3.307292 -11.98562,0 L 105.25338,89.098933 76.413804,60.259344 c -3.30729,-3.307292 -8.67833,-3.307292 -11.98562,0 -3.30729,3.307292 -3.30729,8.678329 0,11.985629 l 28.83958,28.839577 -28.83958,28.83958 c -3.30729,3.3073 -3.30729,8.67834 0,11.98563 3.30729,3.30729 8.67833,3.30729 11.98562,0 l 28.839576,-28.83958 28.83959,28.83958 c 3.30729,3.30729 8.67833,3.30729 11.98562,0 3.30729,-3.30729 3.30729,-8.67833 0,-11.98563 l -28.83958,-28.83958 28.83958,-28.839577 c 3.30729,-3.3073 3.30729,-8.678337 0,-11.985629 z"
     id="path21332"
     style="fill:#ffffff;fill-opacity:1;stroke-width:0.264583" /></svg>
