<?xml version="1.0" encoding="UTF-8" standalone="no"?>
<!-- Created with Inkscape (http://www.inkscape.org/) -->

<svg
   width="188.10205mm"
   height="141.11104mm"
   viewBox="0 0 188.10205 141.11104"
   version="1.1"
   id="svg5"
   xml:space="preserve"
   xmlns="http://www.w3.org/2000/svg"
   xmlns:svg="http://www.w3.org/2000/svg"><defs
     id="defs2"><style
       id="style132">.cls-1{fill:#f44336;fill-rule:evenodd;}</style></defs><rect
     style="fill:#ffffff;fill-opacity:1;stroke:none;stroke-width:0.2167;stroke-linecap:round;stroke-linejoin:round;stroke-dasharray:none"
     id="rect30657"
     width="149.56473"
     height="141.10754"
     x="19.171238"
     y="0.0017786458" /><path
     fill="#4285f4"
     d="m 12.825301,141.11104 h 29.9253 V 68.43528 L 1.009746e-4,36.37244 v 91.91347 c 0,7.08589 5.7393000254,12.82513 12.8252000254,12.82513 z"
     id="path30580"
     style="stroke-width:2.13752" /><path
     fill="#34a853"
     d="m 145.3517,141.11104 h 29.9253 c 7.0859,0 12.8251,-5.73924 12.8251,-12.82513 V 36.37244 l -42.7504,32.06284 z"
     id="path30582"
     style="stroke-width:2.13752" /><path
     fill="#fbbc04"
     d="M 145.3517,12.859692 V 68.43528 L 188.1021,36.37244 V 19.272259 c 0,-15.8497291 -18.0941,-24.9021371 -30.7803,-15.3901621 z"
     id="path30584"
     style="stroke-width:2.13752" /><path
     fill="#ea4335"
     d="M 42.750601,68.43528 V 12.859692 L 94.051101,51.335097 145.3517,12.859692 V 68.43528 l -51.300599,38.4754 z"
     id="path30586"
     style="stroke-width:2.13752" /><path
     fill="#c5221f"
     d="M 1.009746e-4,19.272259 V 36.37244 L 42.750601,68.43528 V 12.859692 L 30.780501,3.8820969 C 18.094301,-5.6298781 1.009746e-4,3.4225299 1.009746e-4,19.272259 Z"
     id="path30588"
     style="stroke-width:2.13752" /></svg>
