<?xml version="1.0" standalone="yes"?>
<svg xmlns="http://www.w3.org/2000/svg" width="343" height="256">

<path style="fill:#e13b2f; stroke:none;" d="M264 23C239.492 35.2053 216.924 57.4304 195 73.8735C189.666 77.8737 176.899 91.4552 170 90.5494C161.28 89.4044 148.994 75.8722 142 70.6265L68 15.1265C53.0788 3.93564 36.7258 -6.18091 18 3.63348C-0.0719128 13.1052 0 30.2291 0 48C0 53.4034 -1.66623 62.202 1.6034 66.8264C10.2721 79.0869 29.9826 88.8604 42 97.8735C71.0845 119.687 99.9132 141.811 129 163.627L159 186.127C162.14 188.481 166.756 193.479 171 193.184C176.119 192.827 182.065 186.325 186 183.373L221 157.127L252 133.873C255.782 131.037 262.363 127.785 263.682 122.91C266.22 113.528 264 100.719 264 91L264 23z"/>
<path style="fill:#fbbd05; stroke:none;" d="M264 124C284.25 111.39 302.91 95.1913 322 80.8735C327.419 76.8091 339.83 70.7556 341.682 63.9097C345.893 48.3444 343.281 21.8242 331.907 10.0401C315.336 -7.12741 293.431 0.0500946 277 12.3735C273.242 15.192 267.443 18.1604 265.028 22.3002C261.195 28.87 264 43.4938 264 51L264 124z"/>
<path style="fill:#4385f5; stroke:none;" d="M0 66L0 201C0 215.478 -4.92151 239.829 7.18519 250.471C14.3197 256.742 23.1713 256 32 256L78 256L78 161C78 151.689 81.6895 132.387 76.9722 124.3C72.7338 117.035 60.6775 111.135 54 106.127C36.226 92.796 18.8537 77.7409 0 66z"/>
<path style="fill:#35a953; stroke:none;" d="M341 66C322.416 79.3493 304.305 93.3976 286 107.127C279.511 111.993 267.853 117.736 264.028 125.039C259.341 133.988 263 152.952 263 163L263 256L310 256C318.609 256 327.004 256.844 333.907 250.671C345.552 240.255 342 220.987 342 207L342 108C342 96.056 345.607 76.9799 341 66z"/>
</svg>
