<?xml version="1.0" encoding="UTF-8" standalone="no"?>
<!-- Created with Inkscape (http://www.inkscape.org/) -->

<svg
   width="20.378357mm"
   height="21.85046mm"
   viewBox="0 0 20.378357 21.85046"
   version="1.1"
   id="svg5"
   xml:space="preserve"
   inkscape:export-filename="bitmap.svg"
   inkscape:export-xdpi="1204.65"
   inkscape:export-ydpi="1204.65"
   xmlns:inkscape="http://www.inkscape.org/namespaces/inkscape"
   xmlns:sodipodi="http://sodipodi.sourceforge.net/DTD/sodipodi-0.dtd"
   xmlns="http://www.w3.org/2000/svg"
   xmlns:svg="http://www.w3.org/2000/svg"><sodipodi:namedview
     id="namedview7"
     pagecolor="#ffffff"
     bordercolor="#666666"
     borderopacity="1.0"
     inkscape:showpageshadow="2"
     inkscape:pageopacity="0.0"
     inkscape:pagecheckerboard="0"
     inkscape:deskcolor="#d1d1d1"
     inkscape:document-units="mm"
     showgrid="false" /><defs
     id="defs2" /><path
     id="right"
     stroke="#000000"
     stroke-width="0"
     d="m 14.535089,17.177557 c 0,0 2.96588,-2.078567 3.19702,-2.30886 0.47752,-0.44704 3.98695,-3.463714 1.92447,-8.8366598 -2.2479,-5.834381 -8.14578,-6.145954 -9.6689304,-6.009641 -3.02768,1.35636 -1.43934,2.038774 -0.42334,2.094654 1.0160004,0.05673 3.6262804,-0.05673 5.2120804,6.208607 0.73914,3.0479998 -1.74921,8.4209458 -2.54,8.9289458 -0.78994,0.508 -0.73321,-0.04149 -0.33866,2.893907 0.90339,3.104727 4.74641,0.898313 5.48047,1.462193 0.73406,0.564727 3.48911,-5.726006 2.92439,-5.556673 -0.56388,0.169333 -3.16061,1.405467 -5.75734,1.123527"
     style="fill:#395b64;fill-opacity:1;paint-order:fill" /><path
     id="left"
     stroke="#000000"
     stroke-width="0"
     d="m 5.8432086,17.177557 c 0,0 -2.96587,-2.078567 -3.19701,-2.30886 -0.47752,-0.44704 -3.98695,-3.463714 -1.92447002,-8.8366598 2.24790002,-5.834381 8.14578002,-6.145954 9.66893042,-6.009641 3.02768,1.35636 1.43933,2.038774 0.42333,2.094654 -1.0160004,0.05673 -3.6262704,-0.05673 -5.2120804,6.208607 -0.73914,3.0479998 1.74922,8.4209458 2.54,8.9289458 0.78994,0.508 0.73322,-0.04149 0.33867,2.893907 -0.90339,3.104727 -4.74641,0.898313 -5.48047,1.462193 -0.73406,0.564727 -3.48912002,-5.726006 -2.92439002,-5.556673 0.56388,0.169333 3.16061002,1.405467 5.75733002,1.123527"
     style="fill:#395b64;fill-opacity:1;paint-order:fill" /></svg>
